<svg xmlns="http://www.w3.org/2000/svg" viewBox="0 0 1441 1444"><path fill="#111" d="M1441 721H970.4l-72.1-175.2L723 472.6V0h-5v473.5l-173.6 71.4L471.3 720H1v5h471l71.4 173.9L718 971.8V1444h5V971.5l174.5-71.7L970.1 726H1441v-5zM893.7 896l-173.6 71.3-172.9-72.2L476 721.6l72.2-172.9 173.4-71.3 172.9 72.2 71.4 173.5L893.7 896z"/><path fill="#212121" d="M965.4 723.3L894.1 550l-172.5-72.1-173 71.2-72.1 172.7-.9-.4 72.2-173.1h.2l173.6-71.4h.2l173.1 72.3.1.2 71.4 173.5z"/><path fill-rule="evenodd" clip-rule="evenodd" d="M561 754.8h93.9l-7.6 11.9 17.4-11.2 17.4 11.2-11.2-17.4 11.2-17.4-17.5 11.1-17.4-11.2 7.6 11.9H561v-63c0-9.3 3.7-18.2 10.2-24.7 6.6-6.6 15.5-10.2 24.7-10.2h111.2v46.8h-91.2l7.6-11.9-17.4 11.2-17.4-11.2 11.2 17.4-11.2 17.4 17.4-11.2 17.4 11.2-7.6-11.9h91.2v57.6c0 9.3-3.7 18.2-10.2 24.7-6.6 6.6-15.5 10.2-24.7 10.2H561v-41.3zm207.4 39.3h-42V647.9H842c9.3 0 18.2 3.7 24.7 10.2 6.6 6.6 10.2 15.5 10.2 24.7V794h-42.3v-88l11.9 7.6-11.2-17.4 11.2-17.4-17.3 11.2-17.4-11.2 11.2 17.4-11.2 17.4 11.9-7.6v88.1h-44.1V706l11.9 7.6-11.2-17.4 11.2-17.4L774 690l-17.4-11.2 11.2 17.4-11.2 17.4 11.9-7.6v88.1z"/><path fill-rule="evenodd" clip-rule="evenodd" fill="#212121" d="M565 757.8h93.9l-7.6 11.9 17.4-11.2 17.4 11.2-11.2-17.4 11.2-17.4-17.5 11.1-17.4-11.2 7.6 11.9H565v-63c0-9.3 3.7-18.2 10.2-24.7 6.6-6.6 15.5-10.2 24.7-10.2h111.2v46.8h-91.2l7.6-11.9-17.4 11.2-17.4-11.2 11.2 17.4-11.2 17.4 17.4-11.2 17.4 11.2-7.6-11.9h91.2v57.6c0 9.3-3.7 18.2-10.2 24.7-6.6 6.6-15.5 10.2-24.7 10.2H565v-41.3zm207.4 39.3h-42V650.9H846c9.3 0 18.2 3.7 24.7 10.2 6.6 6.6 10.2 15.5 10.2 24.7V797h-42.3v-88l11.9 7.6-11.2-17.4 11.2-17.4-17.3 11.2-17.4-11.2 11.2 17.4-11.2 17.4 11.9-7.6v88.1h-44.1V709l11.9 7.6-11.2-17.4 11.2-17.4L778 693l-17.4-11.2 11.2 17.4-11.2 17.4 11.9-7.6v88.1z"/><path fill-rule="evenodd" clip-rule="evenodd" fill="#111" d="M562.9 755.8h93.9l-7.6 11.9 17.4-11.2 17.4 11.2-11.2-17.4 11.2-17.4-17.4 11.1-17.4-11.2 7.6 11.9h-93.9v-63c0-9.3 3.7-18.2 10.2-24.7 6.6-6.6 15.5-10.2 24.7-10.2H709v46.8h-91.2l7.6-11.9-17.4 11.2-17.4-11.2 11.2 17.4-11.2 17.4 17.4-11.2 17.4 11.2-7.6-11.9H709v57.6c0 9.3-3.7 18.2-10.2 24.7-6.6 6.6-15.5 10.2-24.7 10.2H562.9v-41.3zm207.5 39.3h-42V648.9H844c9.3 0 18.2 3.7 24.7 10.2 6.6 6.6 10.2 15.5 10.2 24.7V795h-42.3v-88l11.9 7.6-11.2-17.4 11.2-17.4-17.4 11.2-17.4-11.2 11.2 17.4-11.2 17.4 11.9-7.6v88.1h-44.1V707l11.9 7.6-11.2-17.4 11.2-17.4L776 691l-17.4-11.2 11.2 17.4-11.2 17.4 11.9-7.6v88.1z"/><path d="M723 1445h-6V972.1l-174.2-72.6-.1-.2-71-173.3H0v-6h471l72.8-175.2.2-.1 173-71.5V0h6v472.2l175.5 73.4.1.2L970.8 721H1441v6H970.4l-72.8 173.5-.2.1L723 971.8V1445zm-5-1h4V971.2l174.9-71.5L969.8 726H1440v-4H970.1l-.1-.3-72.3-175.3L722 472.9V1h-4v472.8l-.3.1-173.2 71.6L471.6 721H1v4h471.4l.1.3 71.1 173.4L718 971.4V1444z"/><path fill="#212121" d="M543.307 898.742l174.373 72.65-.384.924-174.374-72.651z"/><path fill="#212121" d="M472.543 725.304l71.119 173.586-.926.38-71.119-173.587z"/><path fill="#212121" d="M0 725h472v1H0zm970 1h471v1H970z"/><path fill="#212121" d="M969.566 725.764l.923.385-72.572 173.856-.923-.386z"/><path fill="#212121" d="M897.419 899.509l.379.926-174.642 71.48-.379-.926z"/><path fill="#212121" d="M722 971h1v473h-1z"/><path d="M476.447 721.487l71.213 173.456-.925.38-71.213-173.457zm488.897 1.436l.922.385-72.186 172.933-.923-.385z"/><path d="M893.564 895.612l.379.926L720.319 967.6l-.379-.926z"/><path d="M547.42 894.606l172.933 72.187-.385.922-172.933-72.186zM0 720h471v1H0z"/><path d="M543.57 544.907l.924.383L471.8 720.72l-.924-.383z"/><path d="M717.288 472.887l.383.923-173.305 71.814-.383-.924z"/><path d="M717 1h1v472h-1z"/><path fill="#212121" d="M722 1h1v472h-1z"/></svg>