<svg xmlns="http://www.w3.org/2000/svg" xmlns:xlink="http://www.w3.org/1999/xlink" viewBox="0 0 400 400"><symbol id="b" viewBox="-176.1 -103.6 352.1 207.3"><path d="M-174.3-17.3h104l-8.5-13.2L-59.4-18-40-30.5l-12.4 19.3L-40 8.2-59.4-4.2-78.7 8.2-70.2-5h-104v69.8c0 10.3 4.1 20.2 11.4 27.4 7.3 7.3 17.1 11.4 27.4 11.4h123.2V51.7h-101.1l8.5 13.2-19.3-12.4-19.3 12.4 12.4-19.3-12.4-19.3 19.3 12.4 19.3-12.4-8.5 13.2h101.1v-63.9c0-10.3-4.1-20.2-11.4-27.4-7.3-7.3-17.1-11.4-27.4-11.4h-123.2v45.9zm230-43.5H9.1v162h128.1c10.3 0 20.2-4.1 27.4-11.4 7.3-7.3 11.4-17.1 11.4-27.4V-60.8h-46.9v97.6l13.2-8.5-12.4 19.3L142.3 67 123 54.6 103.7 67l12.4-19.3-12.4-19.3 13.2 8.5v-97.6H68v97.6l13.2-8.5-12.4 19.3L81.2 67 61.8 54.6 42.5 67l12.4-19.3-12.4-19.4 13.2 8.5v-97.6zm-197.9-12.8h-20.3c-6.6 0-13.5-.5-13.5-6.7v-11h23.1v-3.6c0-1-.8-1.8-1.8-1.8h-21.2v-6.2h25.8s8.1-.3 8.1 5.2V-86h-23.8v2.8c0 1 .8 1.8 1.8 1.8h22v7.8zm24.5 0H-139v-28.9h11v7h13v-7h10V-79c0 6-6.1 5.4-12.7 5.4zm-10.3-15v8h9.6c2.1 0 3.4-1 3.4-3.1v-4.9h-13zm214.5 15H65v-28.9h11v7h13v-7h10V-79c0 6-5.8 5.4-12.5 5.4zM76-88.6v8h9.8c2.1 0 3.2-1 3.2-3.1v-4.9H76zm-144-2.9v-3.2c0-4.3-2.1-7.9-6.4-7.9H-101v29h21c8.8 0 12.1-2.3 12.1-5.6v-3.9c0-1.4-1.3-2.6-2.3-3.3 1.7-1.1 2.2-3 2.2-5.1zm-9-3.6v3c0 1.3-.6 2.4-1.8 2.4H-91v-7h12.8c1 .1 1.2.7 1.2 1.6zm-2.5 16.5H-91v-6h11.5c1.2 0 1.5 1.2 1.5 2.5v1c0 1.1-.3 2.5-1.5 2.5zm31.6-17c-2.2 0-4 1-4 4H-29v7h-24v3h24v7h-34v-22.7c0-6.2 7.4-6.4 14-6.4h20v7.9h-18.9zM-.2-83.2c0-1.8-1.5-3.3-3.3-3.3h-10v6.5h10c1.8 0 3.3-1.4 3.3-3.2zM10-83c0 5.4-4 9.7-9.3 9.7h-25.2v-30h10.8v10.8h3.1l9.4-10.8h11.7L.9-92.5H1c5.2 0 9 4.4 9 9.5zm37.6 9.4H15v-28.9h10v22h8v-22h11v22h2.9c2.1 0 3.1-1 3.1-3.1v-19h10v23.5c0 6.1-5.8 5.5-12.4 5.5zm68.9-18v6.7c0 2 1.6 3.6 3.6 3.6H138v7.7h-23.5c-5.8 0-11.1-6.3-11.1-14.4v-.3c0-8.1 5.3-15.3 11.1-15.3H138v8.5h-17.9c-2-.1-3.6 1.5-3.6 3.5zm48.5 18v-10h-13v10h-11v-30h11v12h13v-12h11v30z" fill-rule="evenodd" clip-rule="evenodd"/></symbol><linearGradient id="a" gradientUnits="userSpaceOnUse" x1="-7.309" y1="61.123" x2="404.691" y2="337.123"><stop offset="0" stop-color="#261c12"/><stop offset=".138" stop-color="#6b5632"/><stop offset=".28" stop-color="#776950"/><stop offset=".291" stop-color="#fff"/><stop offset=".34" stop-color="#d5cbc1"/><stop offset=".655" stop-color="#e8ba7d"/><stop offset=".901" stop-color="#281c12"/><stop offset="1" stop-color="#54473a"/></linearGradient><path fill-rule="evenodd" clip-rule="evenodd" fill="url(#a)" d="M345 396H55c-28.2 0-51-22.8-51-51V55C4 26.8 26.8 4 55 4h290c28.2 0 51 22.8 51 51v290c0 28.2-22.8 51-51 51z"/><path fill="#FFF" d="M345 389.5H55c-24.5 0-44.5-20-44.5-44.5V55c0-24.5 20-44.5 44.5-44.5h290c24.5 0 44.5 20 44.5 44.5v290c0 24.5-20 44.5-44.5 44.5zM55 17.5c-20.7 0-37.5 16.8-37.5 37.5v290c0 20.7 16.8 37.5 37.5 37.5h290c20.7 0 37.5-16.8 37.5-37.5V55c0-20.7-16.8-37.5-37.5-37.5H55z"/><use xlink:href="#b" width="352.1" height="207.3" x="-176.1" y="-103.6" transform="matrix(1 0 0 -1 -338.024 194.352)" overflow="visible"/><use xlink:href="#b" width="352.1" height="207.3" x="-176.1" y="-103.6" transform="matrix(.8353 0 0 -.8353 201.082 192.464)" overflow="visible"/></svg>