<?xml version="1.0" encoding="utf-8"?>
<!-- Generator: Adobe Illustrator 18.0.0, SVG Export Plug-In . SVG Version: 6.00 Build 0)  -->
<!DOCTYPE svg PUBLIC "-//W3C//DTD SVG 1.1//EN" "http://www.w3.org/Graphics/SVG/1.1/DTD/svg11.dtd">
<svg version="1.1" id="Layer_1" xmlns="http://www.w3.org/2000/svg" xmlns:xlink="http://www.w3.org/1999/xlink" x="0px" y="0px"
	 viewBox="0 0 150 150" enable-background="new 0 0 150 150" xml:space="preserve">
<g id="Home">
</g>
<g>
	<path d="M49.5,68.6v15.3h25.3c-1,6.6-7.6,19.2-25.3,19.2c-15.2,0-27.6-12.6-27.6-28.1s12.4-28.1,27.6-28.1c8.7,0,14.4,3.7,17.7,6.9
		l12.1-11.6c-7.8-7.2-17.8-11.6-29.8-11.6C24.9,30.5,5,50.4,5,75s19.9,44.5,44.5,44.5c25.7,0,42.8-18.1,42.8-43.5
		c0-2.9-0.3-5.2-0.7-7.4H49.5L49.5,68.6z"/>
	<path d="M145,67.4h-13.1V54.2h-13.1v13.1h-13.1v13.1h13.1v13.1h13.1V80.5H145V67.4z"/>
</g>
</svg>
