<?xml version="1.0" encoding="utf-8"?>
<!-- Generator: Adobe Illustrator 18.0.0, SVG Export Plug-In . SVG Version: 6.00 Build 0)  -->
<!DOCTYPE svg PUBLIC "-//W3C//DTD SVG 1.1//EN" "http://www.w3.org/Graphics/SVG/1.1/DTD/svg11.dtd">
<svg version="1.1" id="Layer_1" xmlns="http://www.w3.org/2000/svg" xmlns:xlink="http://www.w3.org/1999/xlink" x="0px" y="0px"
	 viewBox="0 0 150 150" enable-background="new 0 0 150 150" xml:space="preserve">
<g>
	<g>
		<path d="M75,145.3c-29.5,0-53.5-31.4-53.5-70s24-70,53.5-70s53.5,31.4,53.5,70S104.5,145.3,75,145.3z M75,11.7
			c-26,0-47.1,28.5-47.1,63.6S49,138.8,75,138.8s47.1-28.5,47.1-63.6S101,11.7,75,11.7z"/>
	</g>
	<g>
		<path d="M70,111.1c0,2.9,3.1,5.2,6,5.2s6-2.3,6-5.2V90H70V111.1z M74,93h3v3h-3V93z"/>
		<path d="M76,26.7c-2.9,0-6,2.3-6,5.2V87h12V31.9C82,29,78.9,26.7,76,26.7z"/>
	</g>
	<g>
		<path d="M101.7,56.9c2.8,13.8-5.1,26.9-17.3,31.7c12.4,3.1,21.3,11.4,21.3,21.3c0,0.6-0.1,1.2-0.1,1.8C112,102,116,89.3,116,75.3
			C116,55.3,108,38,96,28.5L101.7,56.9z"/>
		<path d="M63.7,88.6C51.8,83.9,44,71.3,46.3,57.8l4.4-26.3C40.5,41.4,34,57.3,34,75.3c0,12.5,3.2,24,8.5,33.2
			C43.3,99.2,51.9,91.5,63.7,88.6z"/>
	</g>
</g>
<g id="Home">
</g>
</svg>
