<?xml version="1.0" encoding="utf-8"?>
<!-- Generator: Adobe Illustrator 18.0.0, SVG Export Plug-In . SVG Version: 6.00 Build 0)  -->
<!DOCTYPE svg PUBLIC "-//W3C//DTD SVG 1.1//EN" "http://www.w3.org/Graphics/SVG/1.1/DTD/svg11.dtd">
<svg version="1.1" id="Layer_1" xmlns="http://www.w3.org/2000/svg" xmlns:xlink="http://www.w3.org/1999/xlink" x="0px" y="0px"
	 viewBox="0 0 150 150" enable-background="new 0 0 150 150" xml:space="preserve">
<g id="Home">
</g>
<g>
	<path d="M100,108H73V84h27V67.2c-2-1.2-3.8-2.3-5.8-3.1c-6.7,9.8-18,16.2-30.7,16.2c-13.1,0-24.7-6.9-31.3-17.2
		c-8.4,2.4-15.4,8.6-18.6,17.1L7,97.9C0.1,116.4,13.7,136,33.4,136h59.9c2.7,0,5.3,0,7.7-1h-1V108z"/>
	<circle cx="63.4" cy="43.2" r="29.8"/>
	<polygon points="119,63 104,63 104,89 77,89 77,105 104,105 104,131 119,131 119,105 145,105 145,89 119,89 	"/>
</g>
</svg>
