<?xml version="1.0" encoding="utf-8"?>
<!-- Generator: Adobe Illustrator 18.0.0, SVG Export Plug-In . SVG Version: 6.00 Build 0)  -->
<!DOCTYPE svg PUBLIC "-//W3C//DTD SVG 1.1//EN" "http://www.w3.org/Graphics/SVG/1.1/DTD/svg11.dtd">
<svg version="1.1" id="Layer_1" xmlns="http://www.w3.org/2000/svg" xmlns:xlink="http://www.w3.org/1999/xlink" x="0px" y="0px"
	 viewBox="0 0 150 150" enable-background="new 0 0 150 150" xml:space="preserve">
<g>
	<path d="M145,31.6c-5.2,2.3-10.7,3.8-16.5,4.5c5.9-3.5,10.5-9.2,12.6-15.9c-5.5,3.3-11.7,5.7-18.2,7c-5.2-5.6-12.7-9.1-21-9.1
		c-15.9,0-28.7,12.9-28.7,28.7c0,2.2,0.3,4.4,0.7,6.5c-23.9-1.2-45-12.6-59.2-30c-2.5,4.2-3.9,9.2-3.9,14.5c0,10,5.1,18.8,12.8,23.9
		c-4.7-0.2-9.1-1.4-13-3.6c0,0.1,0,0.2,0,0.4c0,13.9,9.9,25.5,23,28.2c-2.4,0.7-4.9,1-7.6,1c-1.9,0-3.6-0.2-5.4-0.5
		c3.7,11.4,14.3,19.7,26.8,19.9c-9.8,7.7-22.2,12.3-35.7,12.3c-2.3,0-4.6-0.1-6.9-0.4c12.7,8.2,27.8,12.9,44,12.9
		c52.8,0,81.7-43.8,81.7-81.7c0-1.2,0-2.5-0.1-3.7C136.3,42.4,141.1,37.4,145,31.6z"/>
</g>
<g id="Home">
</g>
</svg>
