<?xml version="1.0" encoding="utf-8"?>
<!-- Generator: Adobe Illustrator 18.0.0, SVG Export Plug-In . SVG Version: 6.00 Build 0)  -->
<!DOCTYPE svg PUBLIC "-//W3C//DTD SVG 1.1//EN" "http://www.w3.org/Graphics/SVG/1.1/DTD/svg11.dtd">
<svg version="1.1" id="Layer_1" xmlns="http://www.w3.org/2000/svg" xmlns:xlink="http://www.w3.org/1999/xlink" x="0px" y="0px"
	 viewBox="0 0 150 150" enable-background="new 0 0 150 150" xml:space="preserve">
<g>
	<path d="M100.7,142.5c-17.3,0-34.7,0-52,0c-1.8-0.2-3.5-0.6-5.3-0.7c-17.5-1-30.8-12.3-34.3-29.2c-0.7-3.5-1-7.1-1.6-10.6
		c0-18,0-36,0-54c0.2-1.5,0.5-3.1,0.6-4.6c1-17.4,12.1-30.6,29-34.3C40.7,8.3,44.4,8,48,7.5c18,0,36,0,54,0c1.5,0.2,3.1,0.5,4.6,0.6
		c17.2,1,30,11.6,34,28.4c1,4,1.3,8.1,1.9,12.2c0,17.3,0,34.7,0,52c-0.2,2-0.6,4-0.7,6c-1,17.1-11.6,30-28.3,34
		C109.3,141.6,105,141.9,100.7,142.5z M75,129.7C75,129.7,75,129.7,75,129.7c9.6,0,19.1,0.3,28.7,0c16.2-0.5,25.6-9.8,26-25.8
		c0.4-19.2,0.4-38.5,0-57.7c-0.3-16-9.6-25.5-25.6-25.8c-19.2-0.4-38.5-0.4-57.7,0c-16.5,0.4-25.7,9.5-26.1,26
		c-0.4,19.2-0.4,38.5,0,57.7c0.3,16,9.8,25.2,25.7,25.7C55.7,130,65.4,129.7,75,129.7z"/>
	<path d="M109.6,75.1c-0.1,19.3-15.5,34.6-34.8,34.5C55.5,109.5,40.4,94.2,40.4,75c0-19.3,15.3-34.7,34.7-34.7
		C94.4,40.4,109.7,55.8,109.6,75.1z M75.2,52.6c-12.6-0.1-22.5,9.7-22.6,22.3c0,12.4,9.7,22.4,22,22.5c12.6,0.1,22.7-9.7,22.7-22.1
		C97.4,62.6,87.7,52.7,75.2,52.6z"/>
	<path d="M119.1,38.9c0,4.5-3.5,8.2-8,8.3c-4.4,0.1-8.2-3.7-8.3-8.1c-0.1-4.4,3.6-8.1,8.1-8.1C115.5,30.9,119,34.3,119.1,38.9z"/>
</g>
<g id="Home">
</g>
</svg>
