<?xml version="1.0" encoding="utf-8"?>
<!-- Generator: Adobe Illustrator 18.0.0, SVG Export Plug-In . SVG Version: 6.00 Build 0)  -->
<!DOCTYPE svg PUBLIC "-//W3C//DTD SVG 1.1//EN" "http://www.w3.org/Graphics/SVG/1.1/DTD/svg11.dtd">
<svg version="1.1" id="Layer_1" xmlns="http://www.w3.org/2000/svg" xmlns:xlink="http://www.w3.org/1999/xlink" x="0px" y="0px"
	 viewBox="0 0 150 150" enable-background="new 0 0 150 150" xml:space="preserve">
<g>
	<path fill-rule="evenodd" clip-rule="evenodd" d="M5,90h41.6l-3.4,5.3l7.7-5l7.7,5l-5-7.7l5-7.7l-7.7,5l-7.7-5l3.4,5.3H5V57.1
		c0-4.1,1.6-8.1,4.5-11c2.9-2.9,6.8-4.5,11-4.5h49.2v20.7H29.3l3.4-5.3l-7.7,5l-7.7-5l5,7.7l-5,7.7l7.7-5l7.7,5l-3.4-5.3h40.4v25.5
		c0,4.1-1.6,8.1-4.5,11c-2.9,2.9-6.8,4.5-11,4.5H5V90z"/>
	<path fill-rule="evenodd" clip-rule="evenodd" d="M96.9,107.4H78.3V42.6c0,0,31.5,0,51.2,0c4.1,0,8.1,1.6,11,4.5s4.5,6.8,4.5,11
		v49.2h-18.7v-39l5.3,3.4l-5-7.7l5-7.7l-7.7,5l-7.7-5l5,7.7l-5,7.7l5.3-3.4v39h-19.5v-39l5.3,3.4l-5-7.7l5-7.7l-7.7,5l-7.7-5l5,7.7
		l-5,7.7l5.3-3.4V107.4z"/>
</g>
<g id="Home">
</g>
</svg>
