<?xml version="1.0" encoding="utf-8"?>
<!-- Generator: Adobe Illustrator 18.0.0, SVG Export Plug-In . SVG Version: 6.00 Build 0)  -->
<!DOCTYPE svg PUBLIC "-//W3C//DTD SVG 1.1//EN" "http://www.w3.org/Graphics/SVG/1.1/DTD/svg11.dtd">
<svg version="1.1" id="Layer_1" xmlns="http://www.w3.org/2000/svg" xmlns:xlink="http://www.w3.org/1999/xlink" x="0px" y="0px"
	 viewBox="0 0 150 150" enable-background="new 0 0 150 150" xml:space="preserve">
<g>
	<path d="M75.5,145L15,110V40L75.5,5L136,40v70L75.5,145z M23,105.3l52.5,30.3l52.5-30.3V44.7L75.5,14.3L23,44.7V105.3z"/>
</g>
<g id="Home">
</g>
<path d="M94,69v4.8c0,4.8-4.2,9.3-9.3,9.3S75.5,78,75.5,74h-0.6c0,4-4.1,9.2-9.2,9.2S56.4,78,56.4,74H56v-5h1.6h16.1h3h16.1H94z
	 M93,60l-8.4-24H66l-8.4,24H51v4h52v-4H93z M46,89l11.6,20.6l14-4.9L55.2,80.4L46,89z M95.8,80.4l-16.4,24.3l14,4.9L105,89
	L95.8,80.4z"/>
</svg>
