<?xml version="1.0" encoding="utf-8"?>
<!-- Generator: Adobe Illustrator 18.0.0, SVG Export Plug-In . SVG Version: 6.00 Build 0)  -->
<!DOCTYPE svg PUBLIC "-//W3C//DTD SVG 1.1//EN" "http://www.w3.org/Graphics/SVG/1.1/DTD/svg11.dtd">
<svg version="1.1" id="Layer_1" xmlns="http://www.w3.org/2000/svg" xmlns:xlink="http://www.w3.org/1999/xlink" x="0px" y="0px"
	 viewBox="0 0 150 150" enable-background="new 0 0 150 150" xml:space="preserve">
<g id="Home">
</g>
<g>
	<path d="M38.5,67c0-0.4,0-0.7,0-1.1c0-4.8-0.2-9.6,0-14.4c0.4-10,2.7-19.4,8.6-27.7c5.6-7.9,13.3-12.4,22.9-13.5
		C76.1,9.6,82.1,10,88,12.2c7.3,2.6,12.7,7.5,16.7,14C108,31.8,110,38,111,44.4c0.4,3.2,0.6,6.5,0.7,9.7c0.1,3.9,0,7.9,0,11.8
		c0,0.3,0,0.7,0,1.1c0.7,0.1,1.3,0.1,1.9,0.2c7.3,1.1,12.5,7.1,12.5,14.5c0,14.5,0,29.1,0,43.6c0,8.3-6.5,14.6-14.7,14.6
		c-24.2,0-48.3-0.1-72.5,0c-6.9,0-13.8-4.9-14.8-12.9c-0.1-0.6-0.1-1.2-0.1-1.8c0-14.5,0-29,0-43.4c0-7.2,4.6-12.9,11.6-14.4
		C36.5,67.2,37.4,67.2,38.5,67z M53,67c14.8,0,29.4,0,44.2,0c0-0.4,0-0.7,0-1c0-4.4,0-8.8,0-13.2c0-4.9-0.9-9.7-2.6-14.3
		c-1.4-3.8-3.4-7.3-6.6-9.8c-3.9-3.2-8.5-4.4-13.5-4.2c-7.7,0.2-13.6,3.4-17.3,10.4c-2.9,5.5-4.1,11.5-4.2,17.6
		c-0.1,4.5,0,9.1,0,13.6C53,66.4,53,66.7,53,67z"/>
</g>
</svg>
