<?xml version="1.0" encoding="utf-8"?>
<!-- Generator: Adobe Illustrator 18.0.0, SVG Export Plug-In . SVG Version: 6.00 Build 0)  -->
<!DOCTYPE svg PUBLIC "-//W3C//DTD SVG 1.1//EN" "http://www.w3.org/Graphics/SVG/1.1/DTD/svg11.dtd">
<svg version="1.1" id="Layer_1" xmlns="http://www.w3.org/2000/svg" xmlns:xlink="http://www.w3.org/1999/xlink" x="0px" y="0px"
	 viewBox="0 0 150 150" enable-background="new 0 0 150 150" xml:space="preserve">
<g id="Home">
</g>
<path d="M107.5,118.3c-6,0-10.8,4.8-10.8,10.8c0,6,4.8,10.8,10.8,10.8s10.8-4.8,10.8-10.8C118.3,123.2,113.5,118.3,107.5,118.3z
	 M42.5,118.3c-6,0-10.8,4.8-10.8,10.8c0,6,4.9,10.8,10.8,10.8s10.8-4.8,10.8-10.8C53.3,123.2,48.5,118.3,42.5,118.3z M118.3,85.8
	L140,31.7H42.5V10H10v10.8h21.7v86.7h86.7V96.7H42.5V85.8H118.3z M97,61H86v12H76V61H65v-9h11V40h10v12h11V61z"/>
</svg>
