<?xml version="1.0" encoding="utf-8"?>
<!-- Generator: Adobe Illustrator 18.0.0, SVG Export Plug-In . SVG Version: 6.00 Build 0)  -->
<!DOCTYPE svg PUBLIC "-//W3C//DTD SVG 1.1//EN" "http://www.w3.org/Graphics/SVG/1.1/DTD/svg11.dtd">
<svg version="1.1" id="Layer_1" xmlns="http://www.w3.org/2000/svg" xmlns:xlink="http://www.w3.org/1999/xlink" x="0px" y="0px"
	 viewBox="0 0 150 150" enable-background="new 0 0 150 150" xml:space="preserve">
<g id="Home">
</g>
<path d="M111.5,27.5C88.2,4.3,50.6,4.2,27.3,27.4s-23.1,60.8,0.2,84c20.9,20.9,53.4,23,76.8,6.2l19.3,19.3c3.8,3.8,9.8,4.1,13.7,0.3
	s3.6-9.8-0.3-13.7l-19.3-19.3C134.5,80.9,132.3,48.4,111.5,27.5z M102.1,102c-18,18-47.1,18-65.1,0c-18-18-18-47.1,0-65.1
	s47.1-18,65.1,0C120.1,54.9,120.1,84,102.1,102z M99,77H76v24H61V77H37V62h24V39h15v23h23V77z"/>
</svg>
