<?xml version="1.0" encoding="utf-8"?>
<!-- Generator: Adobe Illustrator 18.0.0, SVG Export Plug-In . SVG Version: 6.00 Build 0)  -->
<!DOCTYPE svg PUBLIC "-//W3C//DTD SVG 1.1//EN" "http://www.w3.org/Graphics/SVG/1.1/DTD/svg11.dtd">
<svg version="1.1" id="Layer_1" xmlns="http://www.w3.org/2000/svg" xmlns:xlink="http://www.w3.org/1999/xlink" x="0px" y="0px"
	 viewBox="0 0 150 150" enable-background="new 0 0 150 150" xml:space="preserve">
<g id="Home">
</g>
<g>
	<path d="M65.2,111.9c-4.8,13.5-11.2,19.5-21.5,19.3c-12.5-0.2-19.1-7.8-21.9-19.6c-2.7,0-5-0.1-7.4,0c-4,0.2-7.3-1-8.5-5.1
		c-1.2-3.9,0.7-6.5,3.9-8.5c0.5-0.3,0.9-0.8,1.4-1.3c0-8.6,0.1-17.2,0-25.8c-0.1-4.9,1.5-9,5.1-12.4c4.1-3.9,8-7.9,11.9-12
		c3.5-3.8,7.7-5.5,12.9-5.3c4.8,0.2,9.5,0,15,0c0-3.9-0.1-7.3,0-10.6c0.3-6.9,4.3-11.6,11.2-11.7c20.7-0.3,41.4-0.3,62,0
		c6.8,0.1,11.1,4.8,11.2,11.8c0.2,23.1,0.2,46.2,0,69.3c-0.1,7.4-3.8,10.5-13.6,12.1c-4.1,12.9-11,19.1-21.5,19.2
		c-10.3,0.1-16.8-5.6-21.9-19.3C77.5,111.9,71.3,111.9,65.2,111.9z M55.5,77.3c0-7,0-14.1,0-21.1c-15.3-2.2-16.9-1.5-26,7.3
		c-4.1,4-4.7,8.3-3.4,13.7C35.9,77.3,45.5,77.3,55.5,77.3z M36.8,110c-0.1,3.8,3,7,6.7,7c3.7,0,6.8-3.2,6.7-7.1
		c-0.1-4.1-2.6-6.2-6.4-6.6C40.1,102.9,36.9,106.2,36.8,110z M111.9,110.1c0-3.8-3.2-7-6.9-6.9c-3.5,0.1-6.5,3.1-6.6,6.6
		c-0.2,3.7,2.9,7.1,6.6,7.2C108.7,117.1,111.9,113.9,111.9,110.1z"/>
</g>
</svg>
