<?xml version="1.0" encoding="utf-8"?>
<!-- Generator: Adobe Illustrator 18.0.0, SVG Export Plug-In . SVG Version: 6.00 Build 0)  -->
<!DOCTYPE svg PUBLIC "-//W3C//DTD SVG 1.1//EN" "http://www.w3.org/Graphics/SVG/1.1/DTD/svg11.dtd">
<svg version="1.1" id="Layer_1" xmlns="http://www.w3.org/2000/svg" xmlns:xlink="http://www.w3.org/1999/xlink" x="0px" y="0px"
	 viewBox="0 0 150 150" enable-background="new 0 0 150 150" xml:space="preserve">
<g id="Home">
</g>
<g>
	<path d="M75,10c-35.9,0-65,29.1-65,65s29.1,65,65,65c35.9,0,65-29.1,65-65S110.9,10,75,10z M75,118.3c-6,0-10.8-4.9-10.8-10.8
		S69,96.7,75,96.7c6,0,10.8,4.9,10.8,10.8S81,118.3,75,118.3z M102,63.8c-2.1,3.3-5.5,6.4-10.1,9.4c-3.9,2.5-6.3,4.4-7.4,5.6
		C83.5,80,83,81.4,83,83v2.9H65.8V81c0-3.6,0.7-6.7,2.2-9.3c1.5-2.5,4.2-5,8-7.4c3-1.9,5.2-3.6,6.5-5.2c1.3-1.5,2-3.3,2-5.3
		c0-1.6-0.7-2.8-2.2-3.7c-1.4-0.9-3.3-1.4-5.5-1.4c-5.7,0-12.3,2-19.8,6l-7.8-15.2c9.3-5.3,19-8,29.1-8c8.3,0,14.9,1.8,19.6,5.5
		c4.7,3.7,7.1,8.6,7.1,15C105.1,56.6,104.1,60.5,102,63.8z"/>
</g>
</svg>
