<?xml version="1.0" encoding="utf-8"?>
<!-- Generator: Adobe Illustrator 18.0.0, SVG Export Plug-In . SVG Version: 6.00 Build 0)  -->
<!DOCTYPE svg PUBLIC "-//W3C//DTD SVG 1.1//EN" "http://www.w3.org/Graphics/SVG/1.1/DTD/svg11.dtd">
<svg version="1.1" id="Layer_1" xmlns="http://www.w3.org/2000/svg" xmlns:xlink="http://www.w3.org/1999/xlink" x="0px" y="0px"
	 viewBox="0 0 150 150" enable-background="new 0 0 150 150" xml:space="preserve">
<g id="Home">
</g>
<g>
	<path d="M88,13.1c0.9,0.3,1.8,0.5,2.6,0.8c5.4,1.9,7.7,6,8.2,11.4c0.1,0.6,0.1,1.3,0.1,2.1c0.5,0,1,0,1.4,0c5.4,0,10.8,0,16.2,0
		c3.8,0,5.1,1,6.1,4.8c1.5,0,3,0,4.6,0c0,3.2,0,6.2,0,9.3c-34.9,0-69.7,0-104.6,0c0-3.1,0-6.1,0-9.3c1.5,0,3,0,4.5,0
		c0.1-0.3,0.2-0.5,0.2-0.7c0.6-2.7,2.3-4.1,5.1-4.1c5.6,0,11.3,0,16.9,0c0.5,0,1,0,1.6,0c0-0.6,0-1.2,0.1-1.7
		c0.2-2.9,0.9-5.7,2.8-8.1c1.7-2.1,3.9-3.4,6.5-4.1c0.5-0.1,1-0.3,1.5-0.4C70.6,13.1,79.3,13.1,88,13.1z M88.9,27.3
		c0.4-3.2-0.5-4.3-3.6-4.5c-0.5,0-1,0-1.6,0c-5.9,0-11.8,0-17.6,0c-0.8,0-1.7,0-2.5,0.2c-2,0.3-2.5,0.8-2.7,2.8c-0.1,0.5,0,1,0,1.6
		C70.3,27.3,79.6,27.3,88.9,27.3z"/>
	<path d="M32.2,46.5c28.6,0,57,0,85.6,0c0,0.4,0.1,0.9,0.1,1.3c0,24.8,0,49.6,0,74.4c0,8.6-6.2,14.7-14.7,14.7
		c-18.7,0-37.5,0-56.2,0c-7.6,0-13.3-4.8-14.6-12.3c-0.1-0.8-0.1-1.6-0.1-2.4c0-24.8,0-49.6,0-74.4C32.2,47.4,32.2,47,32.2,46.5z
		 M60.7,117.8c0-19.1,0-38,0-57c-3.2,0-6.3,0-9.4,0c0,19.1,0,38,0,57C54.4,117.8,57.5,117.8,60.7,117.8z M79.7,117.8
		c0-19.1,0-38.1,0-57c-3.2,0-6.3,0-9.5,0c0,19.1,0,38,0,57C73.5,117.8,76.6,117.8,79.7,117.8z M98.8,117.8c0-19.1,0-38,0-57
		c-3.2,0-6.3,0-9.4,0c0,19.1,0,38.1,0,57C92.5,117.8,95.6,117.8,98.8,117.8z"/>
</g>
</svg>
