<?xml version="1.0" encoding="utf-8"?>
<!-- Generator: Adobe Illustrator 18.0.0, SVG Export Plug-In . SVG Version: 6.00 Build 0)  -->
<!DOCTYPE svg PUBLIC "-//W3C//DTD SVG 1.1//EN" "http://www.w3.org/Graphics/SVG/1.1/DTD/svg11.dtd">
<svg version="1.1" id="Layer_1" xmlns="http://www.w3.org/2000/svg" xmlns:xlink="http://www.w3.org/1999/xlink" x="0px" y="0px"
	 viewBox="0 0 150 150" enable-background="new 0 0 150 150" xml:space="preserve">
<g id="Home">
</g>
<g>
	<path d="M59.1,112.5C48.9,106,39,99.9,29.4,93.6c-2.9-1.9-5.7-2.8-9.1-2.6c-3.3,0.2-6.7,0-10.2,0c0-10.9,0-21.4,0-32.5
		c4.2,0,8.4,0.1,12.6-0.1c1.6-0.1,3.4-0.5,4.7-1.3c9.5-5.9,18.9-11.9,28.3-17.9c1-0.7,2.1-1.3,3.5-2.1
		C59.1,62.3,59.1,87.1,59.1,112.5z"/>
	<path d="M113.1,139.7c-2.6-2.6-5.2-5.3-8.1-8.2c15.1-15.7,23.2-34.6,23.2-56.5c0-21.9-7.9-40.9-22.9-56.6c2.8-2.7,5.5-5.4,8.3-8
		C148.2,43.4,149.5,104.3,113.1,139.7z"/>
	<path d="M95.7,122c-2.7-2.6-5.3-5.1-8.2-7.9C98,103,103.6,89.9,103.6,74.7c0-15.1-5.5-28.1-16.1-39.3c3-2.6,5.9-5,8.8-7.5
		C122,52.2,121.7,97.6,95.7,122z"/>
	<path d="M78.6,45.4c15.9,13.3,16,44.8-0.3,59c-2.7-2.6-5.4-5.2-8.1-7.8C82.7,82,80.9,64.9,70.1,52.9C72.9,50.4,75.6,48,78.6,45.4z"
		/>
</g>
</svg>
