<?xml version="1.0" encoding="utf-8"?>
<!-- Generator: Adobe Illustrator 18.0.0, SVG Export Plug-In . SVG Version: 6.00 Build 0)  -->
<!DOCTYPE svg PUBLIC "-//W3C//DTD SVG 1.1//EN" "http://www.w3.org/Graphics/SVG/1.1/DTD/svg11.dtd">
<svg version="1.1" id="Layer_1" xmlns="http://www.w3.org/2000/svg" xmlns:xlink="http://www.w3.org/1999/xlink" x="0px" y="0px"
	 viewBox="0 0 150 150" enable-background="new 0 0 150 150" xml:space="preserve">
<g id="Home">
</g>
<g>
	<g>
		<polygon points="55.4,44.6 106.2,76.8 55.4,109.1 		"/>
	</g>
	<g>
		<path d="M115.2,140H34.8C21.1,140,10,129.1,10,115.6V34.4C10,20.9,21.1,10,34.8,10h80.4c13.7,0,24.8,10.9,24.8,24.4v81.3
			C140,129.1,128.9,140,115.2,140z M34.8,27.7c-3.7,0-6.8,3-6.8,6.6v81.3c0,3.7,3,6.6,6.8,6.6h80.4c3.7,0,6.8-3,6.8-6.6V34.4
			c0-3.7-3-6.6-6.8-6.6H34.8z"/>
	</g>
</g>
</svg>
