<?xml version="1.0" encoding="utf-8"?>
<!-- Generator: Adobe Illustrator 18.0.0, SVG Export Plug-In . SVG Version: 6.00 Build 0)  -->
<!DOCTYPE svg PUBLIC "-//W3C//DTD SVG 1.1//EN" "http://www.w3.org/Graphics/SVG/1.1/DTD/svg11.dtd">
<svg version="1.1" id="Layer_1" xmlns="http://www.w3.org/2000/svg" xmlns:xlink="http://www.w3.org/1999/xlink" x="0px" y="0px"
	 viewBox="0 0 150 150" enable-background="new 0 0 150 150" xml:space="preserve">
<g>
	<path d="M105,80.4l-5.2-9.6c-1.7-3.1-4.5-5.6-7.7-6.9c-3.6,5.3-9.6,8.7-16.4,8.7c-7,0-13.2-3.7-16.7-9.2c-4.5,1.3-8.2,4.7-9.9,9.2
		l-3.5,9.7C41.7,92.2,49,103,59.6,103h32.1C103.2,103,110.5,90.5,105,80.4z"/>
	<circle cx="75.6" cy="52.8" r="15.9"/>
	<g>
		<path d="M75.5,145L15,110V40L75.5,5L136,40v70L75.5,145z M23,105.3l52.5,30.3l52.5-30.3V44.7L75.5,14.3L23,44.7V105.3z"/>
	</g>
</g>
<g id="Home">
</g>
</svg>
