<?xml version="1.0" encoding="utf-8"?><!DOCTYPE svg PUBLIC "-//W3C//DTD SVG 1.1//EN" "http://www.w3.org/Graphics/SVG/1.1/DTD/svg11.dtd"><svg xmlns="http://www.w3.org/2000/svg" xmlns:xlink="http://www.w3.org/1999/xlink"><defs><svg viewBox="0 0 150 150" id="icon_alert"><path d="M75 10c-35.9 0-65 29.1-65 65s29.1 65 65 65 65-29.1 65-65-29.1-65-65-65zm-.2 112.4c-7.3 0-12.4-5.5-12.4-12.9 0-7.6 5.2-12.9 12.7-12.9s12.4 5.2 12.6 12.9c0 7.3-4.9 12.9-12.6 12.9h-.3zM67 89.6l-3.1-64h22.3l-3.1 64H67z"/></svg><svg viewBox="0 0 150 150" id="icon_bell"><path d="M116.7 81.2c0-25.6 1.3-58.7-33.7-63v-5.5c0-4.4-3.6-7.9-8-7.9s-8 3.6-8 7.9v5.5c-35 4.3-33.7 37.4-33.7 63 0 27.4-22.2 45.8-22.2 45.8h46.2c0 9 7.9 17.7 17.7 17.7S92.7 136 92.7 127h46.2s-22.2-18.4-22.2-45.8z"/></svg><svg viewBox="0 0 150 150" id="icon_bullet"><path d="M55.4 44.6l50.8 32.2-50.8 32.3z"/><path d="M115.2 140H34.8C21.1 140 10 129.1 10 115.6V34.4C10 20.9 21.1 10 34.8 10h80.4c13.7 0 24.8 10.9 24.8 24.4v81.3c0 13.4-11.1 24.3-24.8 24.3zM34.8 27.7c-3.7 0-6.8 3-6.8 6.6v81.3c0 3.7 3 6.6 6.8 6.6h80.4c3.7 0 6.8-3 6.8-6.6V34.4c0-3.7-3-6.6-6.8-6.6H34.8z"/></svg><svg viewBox="0 0 150 150" id="icon_card"><path d="M138 37.4c0-6.3-5.1-11.4-11.4-11.4H19.4C13.1 26 8 31.1 8 37.4v72.2c0 6.3 5.1 11.4 11.4 11.4h107.2c6.3 0 11.4-5.1 11.4-11.4V37.4zm-9-.4v17H18V37h111zM18 109V73h111v36H18z"/><path d="M23 84h12v13H23zM39 84h12v13H39zM55 84h13v13H55z"/></svg><svg viewBox="0 0 150 150" id="icon_cart"><path d="M107.5 118.3c-6 0-10.8 4.8-10.8 10.8 0 6 4.8 10.8 10.8 10.8s10.8-4.8 10.8-10.8c0-5.9-4.8-10.8-10.8-10.8zm-65 0c-6 0-10.8 4.8-10.8 10.8 0 6 4.9 10.8 10.8 10.8s10.8-4.8 10.8-10.8c0-5.9-4.8-10.8-10.8-10.8zm75.8-32.5L140 31.7H42.5V10H10v10.8h21.7v86.7h86.7V96.7H42.5V85.8h75.8z"/></svg><svg viewBox="0 0 150 150" id="icon_check"><path d="M122.1 14.5L59.3 86.2 27.9 59.3 10 77.2l53.5 58.3L140 27.9z"/></svg><svg viewBox="0 0 150 150" id="icon_color"><path d="M124.1 96c-.1 26.5-22 49-49.1 49s-49-22.5-49.1-49v-2.3c.2-4.7 1-9.2 2.4-13.5C38.2 45.8 75 5 75 5s36.8 40.9 46.6 75.2c1.4 4.3 2.1 8.8 2.3 13.5 0 .4.2 2.3.2 2.3zM54 97.1c-5.8 0-10.5 4.7-10.5 10.5S48.3 118 54 118s10.5-4.7 10.5-10.5S59.8 97.1 54 97.1z"/></svg><svg viewBox="0 0 150 150" id="icon_edit"><path d="M96.7 10L10 96.7V140h43.3L140 53.3 96.7 10zm0 18.6l9.3 9.3-57.6 57.5-9.3-9.3 57.6-57.5zm-49.6 99l-24.8-24.8 12.4-12.4 9.3 9.3 6.2 6.2 9.3 9.3-12.4 12.4zm7.5-26L112.1 44l9.3 9.3-57.5 57.5-9.3-9.2z"/></svg><svg viewBox="0 0 150 150" id="icon_facebook"><path d="M81.9 59.1V45.8v-.9c0-5.3 1.1-8.6 8.1-8.6h12.4l.5-18.1s-5.8-.7-13.7-.7c-19.4 0-27.9 12-27.9 25v16.6H47.1v19.4h14.3v54h20.5v-54H102l.9-19.4h-21z"/></svg><svg viewBox="0 0 150 150" id="icon_googleplus"><path d="M49.5 68.6v15.3h25.3c-1 6.6-7.6 19.2-25.3 19.2-15.2 0-27.6-12.6-27.6-28.1s12.4-28.1 27.6-28.1c8.7 0 14.4 3.7 17.7 6.9l12.1-11.6C71.5 35 61.5 30.6 49.5 30.6 24.9 30.5 5 50.4 5 75s19.9 44.5 44.5 44.5c25.7 0 42.8-18.1 42.8-43.5 0-2.9-.3-5.2-.7-7.4H49.5zM145 67.4h-13.1V54.2h-13.1v13.1h-13.1v13.1h13.1v13.1h13.1v-13H145V67.4z"/></svg><svg viewBox="0 0 150 150" id="icon_help"><path d="M75 10c-35.9 0-65 29.1-65 65s29.1 65 65 65 65-29.1 65-65-29.1-65-65-65zm0 108.3c-6 0-10.8-4.9-10.8-10.8S69 96.7 75 96.7c6 0 10.8 4.9 10.8 10.8S81 118.3 75 118.3zm27-54.5c-2.1 3.3-5.5 6.4-10.1 9.4-3.9 2.5-6.3 4.4-7.4 5.6-1 1.2-1.5 2.6-1.5 4.2v2.9H65.8V81c0-3.6.7-6.7 2.2-9.3 1.5-2.5 4.2-5 8-7.4 3-1.9 5.2-3.6 6.5-5.2 1.3-1.5 2-3.3 2-5.3 0-1.6-.7-2.8-2.2-3.7-1.4-.9-3.3-1.4-5.5-1.4-5.7 0-12.3 2-19.8 6l-7.8-15.2c9.3-5.3 19-8 29.1-8 8.3 0 14.9 1.8 19.6 5.5 4.7 3.7 7.1 8.6 7.1 15 .1 4.6-.9 8.5-3 11.8z"/></svg><svg viewBox="0 0 150 150" id="icon_home"><path d="M142.5 64.7L118 46V15.1h-17.5v17.6L75 13.1 7.5 64.7l10.6 13.9 7.3-5.6v63.9h99.2V73l7.3 5.5 10.6-13.8zm-27.6 62.5H92.5v-37h-35v36.9H35.1V66.8L75 36.4l39.9 30.5v60.3z"/></svg><svg viewBox="0 0 150 150" id="icon_incognito"><path d="M75.5 145L15 110V40L75.5 5 136 40v70l-60.5 35zM23 105.3l52.5 30.3 52.5-30.3V44.7L75.5 14.3 23 44.7v60.6z"/><path d="M94 69v4.8c0 4.8-4.2 9.3-9.3 9.3S75.5 78 75.5 74h-.6c0 4-4.1 9.2-9.2 9.2S56.4 78 56.4 74H56v-5H94zm-1-9l-8.4-24H66l-8.4 24H51v4h52v-4H93zM46 89l11.6 20.6 14-4.9-16.4-24.3L46 89zm49.8-8.6l-16.4 24.3 14 4.9L105 89l-9.2-8.6z"/></svg><svg viewBox="0 0 150 150" id="icon_info"><path d="M75 10c-35.9 0-65 29.1-65 65s29.1 65 65 65 65-29.1 65-65-29.1-65-65-65zm0 21.7c6 0 10.8 4.9 10.8 10.8S81 53.3 75 53.3c-6 0-10.8-4.9-10.8-10.8S69 31.7 75 31.7zm21.7 86.6H53.3v-10.8h13.5V75H56V64.2h27.1v43.3h13.5v10.8z"/></svg><svg viewBox="0 0 150 150" id="icon_instagram"><path d="M100.7 142.5h-52c-1.8-.2-3.5-.6-5.3-.7-17.5-1-30.8-12.3-34.3-29.2-.7-3.5-1-7.1-1.6-10.6V48c.2-1.5.5-3.1.6-4.6 1-17.4 12.1-30.6 29-34.3C40.7 8.3 44.4 8 48 7.5h54c1.5.2 3.1.5 4.6.6 17.2 1 30 11.6 34 28.4 1 4 1.3 8.1 1.9 12.2v52c-.2 2-.6 4-.7 6-1 17.1-11.6 30-28.3 34-4.2.9-8.5 1.2-12.8 1.8zM75 129.7c9.6 0 19.1.3 28.7 0 16.2-.5 25.6-9.8 26-25.8.4-19.2.4-38.5 0-57.7-.3-16-9.6-25.5-25.6-25.8-19.2-.4-38.5-.4-57.7 0-16.5.4-25.7 9.5-26.1 26-.4 19.2-.4 38.5 0 57.7.3 16 9.8 25.2 25.7 25.7 9.7.2 19.4-.1 29-.1z"/><path d="M109.6 75.1c-.1 19.3-15.5 34.6-34.8 34.5-19.3-.1-34.4-15.4-34.4-34.6 0-19.3 15.3-34.7 34.7-34.7 19.3.1 34.6 15.5 34.5 34.8zM75.2 52.6c-12.6-.1-22.5 9.7-22.6 22.3 0 12.4 9.7 22.4 22 22.5 12.6.1 22.7-9.7 22.7-22.1.1-12.7-9.6-22.6-22.1-22.7zM119.1 38.9c0 4.5-3.5 8.2-8 8.3-4.4.1-8.2-3.7-8.3-8.1-.1-4.4 3.6-8.1 8.1-8.1 4.6-.1 8.1 3.3 8.2 7.9z"/></svg><svg viewBox="0 0 150 150" id="icon_login"><path d="M108.4 75L54 20.6V49H10v52h44v28.4z"/><path d="M115.1 128.8H76.7L87 118.6h28.1c8.1 0 14.6-6.6 14.6-14.6V46.1c0-8.1-6.6-14.6-14.6-14.6H87L76.7 21.2h38.4c13.7 0 24.9 11.2 24.9 24.9V104c0 13.7-11.2 24.8-24.9 24.8z"/></svg><svg viewBox="0 0 150 150" id="icon_logo-sm"><g fill-rule="evenodd" clip-rule="evenodd"><path d="M5 90h41.6l-3.4 5.3 7.7-5 7.7 5-5-7.7 5-7.7-7.7 5-7.7-5 3.4 5.3H5V57.1c0-4.1 1.6-8.1 4.5-11 2.9-2.9 6.8-4.5 11-4.5h49.2v20.7H29.3l3.4-5.3-7.7 5-7.7-5 5 7.7-5 7.7 7.7-5 7.7 5-3.4-5.3h40.4v25.5c0 4.1-1.6 8.1-4.5 11-2.9 2.9-6.8 4.5-11 4.5H5V90zM96.9 107.4H78.3V42.6h51.2c4.1 0 8.1 1.6 11 4.5s4.5 6.8 4.5 11v49.2h-18.7v-39l5.3 3.4-5-7.7 5-7.7-7.7 5-7.7-5 5 7.7-5 7.7 5.3-3.4v39H102v-39l5.3 3.4-5-7.7 5-7.7-7.7 5-7.7-5 5 7.7-5 7.7 5.3-3.4v39.1z"/></g></svg><svg viewBox="0 0 150 150" id="icon_logout"><path d="M140 75L86 20v29H42v52h44v29z"/><path d="M34.7 20.6h38.1V31H34.7c-8 0-14.5 6.6-14.5 14.8v58.5c0 8.1 6.5 14.8 14.5 14.8h38.1v10.4H34.7c-13.6 0-24.7-11.3-24.7-25.2V45.8c0-13.9 11.1-25.2 24.7-25.2z"/></svg><svg viewBox="0 0 150 150" id="icon_mail"><path d="M10 31.7v10.8L75 75l65-32.5V31.7H10zm0 27.1v59.6h130V58.8L75 91.3 10 58.8z"/></svg><svg viewBox="0 0 150 150" id="icon_menu"><path d="M122.5 47.2h-95V35.7h95v11.5zm0 22.1h-95v11.5h95V69.3zm0 33.5h-95v11.5h95v-11.5z"/></svg><svg viewBox="0 0 150 150" id="icon_padlock"><path d="M38.5 67v-1.1c0-4.8-.2-9.6 0-14.4.4-10 2.7-19.4 8.6-27.7 5.6-7.9 13.3-12.4 22.9-13.5 6.1-.7 12.1-.3 18 1.9 7.3 2.6 12.7 7.5 16.7 14C108 31.8 110 38 111 44.4c.4 3.2.6 6.5.7 9.7.1 3.9 0 7.9 0 11.8V67c.7.1 1.3.1 1.9.2 7.3 1.1 12.5 7.1 12.5 14.5v43.6c0 8.3-6.5 14.6-14.7 14.6-24.2 0-48.3-.1-72.5 0-6.9 0-13.8-4.9-14.8-12.9-.1-.6-.1-1.2-.1-1.8V81.8c0-7.2 4.6-12.9 11.6-14.4.9-.2 1.8-.2 2.9-.4zM53 67h44.2v-1-13.2c0-4.9-.9-9.7-2.6-14.3-1.4-3.8-3.4-7.3-6.6-9.8-3.9-3.2-8.5-4.4-13.5-4.2-7.7.2-13.6 3.4-17.3 10.4-2.9 5.5-4.1 11.5-4.2 17.6-.1 4.5 0 9.1 0 13.6v.9z"/></svg><svg viewBox="0 0 150 150" id="icon_phone"><path d="M113.6 92.3l-16.9 16.9c-21.2-9.3-38.9-25.2-50.4-45l16-16c-5.7-11.5-9-24.4-9-38.2H10c0 71.8 58.2 130 130 130V96.7c-9.3 0-18.1-1.7-26.4-4.4z"/></svg><svg viewBox="0 0 150 150" id="icon_plus"><path d="M140 60H90V10H61v50H10v29h51v51h29V89h50z"/></svg><svg viewBox="0 0 150 150" id="icon_sable"><path d="M75 145.3c-29.5 0-53.5-31.4-53.5-70s24-70 53.5-70 53.5 31.4 53.5 70-24 70-53.5 70zm0-133.6c-26 0-47.1 28.5-47.1 63.6S49 138.8 75 138.8s47.1-28.5 47.1-63.6S101 11.7 75 11.7z"/><path d="M70 111.1c0 2.9 3.1 5.2 6 5.2s6-2.3 6-5.2V90H70v21.1zM74 93h3v3h-3v-3zM76 26.7c-2.9 0-6 2.3-6 5.2V87h12V31.9c0-2.9-3.1-5.2-6-5.2z"/><g><path d="M101.7 56.9c2.8 13.8-5.1 26.9-17.3 31.7 12.4 3.1 21.3 11.4 21.3 21.3 0 .6-.1 1.2-.1 1.8C112 102 116 89.3 116 75.3c0-20-8-37.3-20-46.8l5.7 28.4zM63.7 88.6C51.8 83.9 44 71.3 46.3 57.8l4.4-26.3C40.5 41.4 34 57.3 34 75.3c0 12.5 3.2 24 8.5 33.2.8-9.3 9.4-17 21.2-19.9z"/></g></svg><svg viewBox="0 0 150 150" id="icon_shine"><path d="M140 10l-26.9 65 26.9 65-65-26.9L10 140l26.9-65L10 10l65 26.9z"/></svg><svg viewBox="0 0 150 150" id="icon_shipping"><path d="M65.2 111.9c-4.8 13.5-11.2 19.5-21.5 19.3-12.5-.2-19.1-7.8-21.9-19.6-2.7 0-5-.1-7.4 0-4 .2-7.3-1-8.5-5.1-1.2-3.9.7-6.5 3.9-8.5.5-.3.9-.8 1.4-1.3 0-8.6.1-17.2 0-25.8-.1-4.9 1.5-9 5.1-12.4 4.1-3.9 8-7.9 11.9-12 3.5-3.8 7.7-5.5 12.9-5.3 4.8.2 9.5 0 15 0 0-3.9-.1-7.3 0-10.6.3-6.9 4.3-11.6 11.2-11.7 20.7-.3 41.4-.3 62 0 6.8.1 11.1 4.8 11.2 11.8.2 23.1.2 46.2 0 69.3-.1 7.4-3.8 10.5-13.6 12.1-4.1 12.9-11 19.1-21.5 19.2-10.3.1-16.8-5.6-21.9-19.3-6-.1-12.2-.1-18.3-.1zm-9.7-34.6V56.2c-15.3-2.2-16.9-1.5-26 7.3-4.1 4-4.7 8.3-3.4 13.7 9.8.1 19.4.1 29.4.1zM36.8 110c-.1 3.8 3 7 6.7 7s6.8-3.2 6.7-7.1c-.1-4.1-2.6-6.2-6.4-6.6-3.7-.4-6.9 2.9-7 6.7zm75.1.1c0-3.8-3.2-7-6.9-6.9-3.5.1-6.5 3.1-6.6 6.6-.2 3.7 2.9 7.1 6.6 7.2 3.7.1 6.9-3.1 6.9-6.9z"/></svg><svg viewBox="0 0 150 150" id="icon_shopping"><path d="M107.5 118.3c-6 0-10.8 4.8-10.8 10.8 0 6 4.8 10.8 10.8 10.8s10.8-4.8 10.8-10.8c0-5.9-4.8-10.8-10.8-10.8zm-65 0c-6 0-10.8 4.8-10.8 10.8 0 6 4.9 10.8 10.8 10.8s10.8-4.8 10.8-10.8c0-5.9-4.8-10.8-10.8-10.8zm75.8-32.5L140 31.7H42.5V10H10v10.8h21.7v86.7h86.7V96.7H42.5V85.8h75.8zM97 61H86v12H76V61H65v-9h11V40h10v12h11v9z"/></svg><svg viewBox="0 0 150 150" id="icon_signup"><path d="M100 108H73V84h27V67.2c-2-1.2-3.8-2.3-5.8-3.1-6.7 9.8-18 16.2-30.7 16.2-13.1 0-24.7-6.9-31.3-17.2-8.4 2.4-15.4 8.6-18.6 17.1L7 97.9C.1 116.4 13.7 136 33.4 136h59.9c2.7 0 5.3 0 7.7-1h-1v-27z"/><circle cx="63.4" cy="43.2" r="29.8"/><path d="M119 63h-15v26H77v16h27v26h15v-26h26V89h-26z"/></svg><svg viewBox="0 0 150 150" id="icon_sound"><path d="M59.1 112.5C48.9 106 39 99.9 29.4 93.6c-2.9-1.9-5.7-2.8-9.1-2.6-3.3.2-6.7 0-10.2 0V58.5c4.2 0 8.4.1 12.6-.1 1.6-.1 3.4-.5 4.7-1.3 9.5-5.9 18.9-11.9 28.3-17.9 1-.7 2.1-1.3 3.5-2.1-.1 25.2-.1 50-.1 75.4zM113.1 139.7c-2.6-2.6-5.2-5.3-8.1-8.2 15.1-15.7 23.2-34.6 23.2-56.5s-7.9-40.9-22.9-56.6c2.8-2.7 5.5-5.4 8.3-8 34.6 33 35.9 93.9-.5 129.3z"/><path d="M95.7 122c-2.7-2.6-5.3-5.1-8.2-7.9C98 103 103.6 89.9 103.6 74.7c0-15.1-5.5-28.1-16.1-39.3 3-2.6 5.9-5 8.8-7.5 25.7 24.3 25.4 69.7-.6 94.1z"/><path d="M78.6 45.4c15.9 13.3 16 44.8-.3 59l-8.1-7.8c12.5-14.6 10.7-31.7-.1-43.7 2.8-2.5 5.5-4.9 8.5-7.5z"/></svg><svg viewBox="0 0 150 150" id="icon_thunder"><path d="M75 10c-35.9 0-65 29.1-65 65s29.1 65 65 65 65-29.1 65-65-29.1-65-65-65zm0 118.7c-29.6 0-53.8-24.1-53.8-53.7 0-25 17.1-45.7 40.2-51.8L49.7 78H74l-11.1 46.2 47-68.2H84.4l10.2-30.5c20 7.9 34.2 27.1 34.2 49.8 0 29.6-24.2 53.4-53.8 53.4z"/></svg><svg viewBox="0 0 150 150" id="icon_trash"><path d="M88 13.1c.9.3 1.8.5 2.6.8 5.4 1.9 7.7 6 8.2 11.4.1.6.1 1.3.1 2.1H116.5c3.8 0 5.1 1 6.1 4.8h4.6v9.3H22.6v-9.3h4.5c.1-.3.2-.5.2-.7.6-2.7 2.3-4.1 5.1-4.1h18.5c0-.6 0-1.2.1-1.7.2-2.9.9-5.7 2.8-8.1 1.7-2.1 3.9-3.4 6.5-4.1.5-.1 1-.3 1.5-.4H88zm.9 14.2c.4-3.2-.5-4.3-3.6-4.5H66.1c-.8 0-1.7 0-2.5.2-2 .3-2.5.8-2.7 2.8-.1.5 0 1 0 1.6 9.4-.1 18.7-.1 28-.1zM32.2 46.5h85.6c0 .4.1.9.1 1.3v74.4c0 8.6-6.2 14.7-14.7 14.7H47c-7.6 0-13.3-4.8-14.6-12.3-.1-.8-.1-1.6-.1-2.4V47.8c-.1-.4-.1-.8-.1-1.3zm28.5 71.3v-57h-9.4v57h9.4zm19 0v-57h-9.5v57h9.5zm19.1 0v-57h-9.4v57h9.4z"/></svg><svg viewBox="0 0 150 150" id="icon_twitter"><path d="M145 31.6c-5.2 2.3-10.7 3.8-16.5 4.5 5.9-3.5 10.5-9.2 12.6-15.9-5.5 3.3-11.7 5.7-18.2 7-5.2-5.6-12.7-9.1-21-9.1C86 18.1 73.2 31 73.2 46.8c0 2.2.3 4.4.7 6.5-23.9-1.2-45-12.6-59.2-30-2.5 4.2-3.9 9.2-3.9 14.5 0 10 5.1 18.8 12.8 23.9-4.7-.2-9.1-1.4-13-3.6v.4c0 13.9 9.9 25.5 23 28.2-2.4.7-4.9 1-7.6 1-1.9 0-3.6-.2-5.4-.5 3.7 11.4 14.3 19.7 26.8 19.9-9.8 7.7-22.2 12.3-35.7 12.3-2.3 0-4.6-.1-6.9-.4 12.7 8.2 27.8 12.9 44 12.9 52.8 0 81.7-43.8 81.7-81.7 0-1.2 0-2.5-.1-3.7 5.9-4.1 10.7-9.1 14.6-14.9z"/></svg><svg viewBox="0 0 150 150" id="icon_user"><path d="M132.9 95.5l-10.1-18.8c-3.4-6.2-8.7-11-15-13.5-7 10.3-18.7 16.9-32.1 16.9-13.7 0-25.8-7.2-32.7-18-8.8 2.6-16.1 9.1-19.4 18l-6.9 19.2c-7.2 19.3 7 40.6 27.7 40.6H107c22.4.1 36.7-24.7 25.9-44.4z"/><circle cx="75.6" cy="41.3" r="31.1"/></svg><svg viewBox="0 0 150 150" id="icon_user-hex"><path d="M105 80.4l-5.2-9.6c-1.7-3.1-4.5-5.6-7.7-6.9-3.6 5.3-9.6 8.7-16.4 8.7-7 0-13.2-3.7-16.7-9.2-4.5 1.3-8.2 4.7-9.9 9.2l-3.5 9.7c-3.9 9.9 3.4 20.7 14 20.7h32.1c11.5 0 18.8-12.5 13.3-22.6z"/><circle cx="75.6" cy="52.8" r="15.9"/><path d="M75.5 145L15 110V40L75.5 5 136 40v70l-60.5 35zM23 105.3l52.5 30.3 52.5-30.3V44.7L75.5 14.3 23 44.7v60.6z"/></svg><svg viewBox="0 0 150 150" id="icon_x"><path d="M135 113.1L96.6 75 135 36.9 113.9 16 75.5 54 36.1 15 15 36l39.4 39L15 114l21.1 21 39.4-39 38.4 38z"/></svg><svg viewBox="0 0 150 150" id="icon_youtube"><path d="M115 25H35C18.4 25 5 38.4 5 55v40c0 16.6 13.4 30 30 30h80c16.6 0 30-13.4 30-30V55c0-16.6-13.4-30-30-30zm-60 80V45l50 30-50 30z"/></svg><svg viewBox="0 0 150 150" id="icon_zoom"><path d="M111.5 27.5C88.2 4.3 50.6 4.2 27.3 27.4s-23.1 60.8.2 84c20.9 20.9 53.4 23 76.8 6.2l19.3 19.3c3.8 3.8 9.8 4.1 13.7.3s3.6-9.8-.3-13.7l-19.3-19.3c16.8-23.3 14.6-55.8-6.2-76.7zm-9.4 74.5c-18 18-47.1 18-65.1 0-18-18-18-47.1 0-65.1s47.1-18 65.1 0c18 18 18 47.1 0 65.1zM99 77H76v24H61V77H37V62h24V39h15v23h23v15z"/></svg></defs></svg>