<?xml version="1.0" encoding="utf-8"?>
<!-- Generator: Adobe Illustrator 18.0.0, SVG Export Plug-In . SVG Version: 6.00 Build 0)  -->
<!DOCTYPE svg PUBLIC "-//W3C//DTD SVG 1.1//EN" "http://www.w3.org/Graphics/SVG/1.1/DTD/svg11.dtd">
<svg version="1.1" id="Layer_1" xmlns="http://www.w3.org/2000/svg" xmlns:xlink="http://www.w3.org/1999/xlink" x="0px" y="0px"
	 viewBox="0 0 1441 1444" enable-background="new 0 0 1441 1444" xml:space="preserve">
<g id="SM_logo">
</g>
<g>
	<path fill="#111111" d="M1441,721H970.4l-72.1-175.2L723,472.6V0h-5v473.5l-173.6,71.4L471.3,720H1v5h471l71.4,173.9L718,971.8
		V1444h5V971.5l174.5-71.7L970.1,726H1441V721z M893.7,896l-173.6,71.3l-172.9-72.2L476,721.6l72.2-172.9l173.4-71.3l172.9,72.2
		l71.4,173.5L893.7,896z"/>
</g>
<g>
	<polygon fill="#212121" points="965.4,723.3 894.1,550 721.6,477.9 548.6,549.1 476.5,721.8 475.6,721.4 547.8,548.3 548,548.3 
		721.6,476.9 721.8,476.9 894.9,549.2 895,549.4 966.4,722.9 	"/>
</g>
<path fill-rule="evenodd" clip-rule="evenodd" d="M561,754.8h93.9l-7.6,11.9l17.4-11.2l17.4,11.2l-11.2-17.4l11.2-17.4L664.6,743
	l-17.4-11.2l7.6,11.9H561v-63c0-9.3,3.7-18.2,10.2-24.7c6.6-6.6,15.5-10.2,24.7-10.2h111.2v46.8h-91.2l7.6-11.9l-17.4,11.2
	l-17.4-11.2l11.2,17.4l-11.2,17.4l17.4-11.2l17.4,11.2l-7.6-11.9h91.2v57.6c0,9.3-3.7,18.2-10.2,24.7c-6.6,6.6-15.5,10.2-24.7,10.2
	H561V754.8z"/>
<path fill-rule="evenodd" clip-rule="evenodd" d="M768.4,794.1h-42V647.9c0,0,71.1,0,115.6,0c9.3,0,18.2,3.7,24.7,10.2
	c6.6,6.6,10.2,15.5,10.2,24.7v111.2h-42.3V706l11.9,7.6l-11.2-17.4l11.2-17.4L829.2,690l-17.4-11.2l11.2,17.4l-11.2,17.4l11.9-7.6
	v88.1h-44.1V706l11.9,7.6l-11.2-17.4l11.2-17.4L774,690l-17.4-11.2l11.2,17.4l-11.2,17.4l11.9-7.6V794.1z"/>
<path fill-rule="evenodd" clip-rule="evenodd" fill="#212121" d="M565,757.8h93.9l-7.6,11.9l17.4-11.2l17.4,11.2l-11.2-17.4
	l11.2-17.4L668.6,746l-17.4-11.2l7.6,11.9H565v-63c0-9.3,3.7-18.2,10.2-24.7c6.6-6.6,15.5-10.2,24.7-10.2h111.2v46.8h-91.2l7.6-11.9
	l-17.4,11.2l-17.4-11.2l11.2,17.4l-11.2,17.4l17.4-11.2l17.4,11.2l-7.6-11.9h91.2v57.6c0,9.3-3.7,18.2-10.2,24.7
	c-6.6,6.6-15.5,10.2-24.7,10.2H565V757.8z"/>
<path fill-rule="evenodd" clip-rule="evenodd" fill="#212121" d="M772.4,797.1h-42V650.9c0,0,71.1,0,115.6,0
	c9.3,0,18.2,3.7,24.7,10.2c6.6,6.6,10.2,15.5,10.2,24.7v111.2h-42.3V709l11.9,7.6l-11.2-17.4l11.2-17.4L833.2,693l-17.4-11.2
	l11.2,17.4l-11.2,17.4l11.9-7.6v88.1h-44.1V709l11.9,7.6l-11.2-17.4l11.2-17.4L778,693l-17.4-11.2l11.2,17.4l-11.2,17.4l11.9-7.6
	V797.1z"/>
<path fill-rule="evenodd" clip-rule="evenodd" fill="#111111" d="M562.9,755.8h93.9l-7.6,11.9l17.4-11.2l17.4,11.2l-11.2-17.4
	l11.2-17.4L666.6,744l-17.4-11.2l7.6,11.9h-93.9v-63c0-9.3,3.7-18.2,10.2-24.7c6.6-6.6,15.5-10.2,24.7-10.2h111.2v46.8h-91.2
	l7.6-11.9l-17.4,11.2l-17.4-11.2l11.2,17.4l-11.2,17.4l17.4-11.2l17.4,11.2l-7.6-11.9h91.2v57.6c0,9.3-3.7,18.2-10.2,24.7
	c-6.6,6.6-15.5,10.2-24.7,10.2H562.9V755.8z"/>
<path fill-rule="evenodd" clip-rule="evenodd" fill="#111111" d="M770.4,795.1h-42V648.9c0,0,71.1,0,115.6,0
	c9.3,0,18.2,3.7,24.7,10.2c6.6,6.6,10.2,15.5,10.2,24.7v111.2h-42.3V707l11.9,7.6l-11.2-17.4l11.2-17.4L831.1,691l-17.4-11.2
	l11.2,17.4l-11.2,17.4l11.9-7.6v88.1h-44.1V707l11.9,7.6l-11.2-17.4l11.2-17.4L776,691l-17.4-11.2l11.2,17.4l-11.2,17.4l11.9-7.6
	V795.1z"/>
<g>
	<path d="M723,1445h-6V972.1l-174.2-72.6l-0.1-0.2l-71-173.3H0v-6h471l72.8-175.2l0.2-0.1l173-71.5V0h6v472.2l175.5,73.4l0.1,0.2
		L970.8,721H1441v6H970.4l-72.8,173.5l-0.2,0.1L723,971.8V1445z M718,1444h4V971.2l174.9-71.5L969.8,726H1440v-4H970.1l-0.1-0.3
		l-72.3-175.3L722,472.9V1h-4v472.8l-0.3,0.1l-173.2,71.6L471.6,721H1v4h471.4l0.1,0.3l71.1,173.4L718,971.4V1444z"/>
</g>
<g>
	
		<rect x="535.9" y="935" transform="matrix(0.9231 0.3846 -0.3846 0.9231 408.2183 -170.464)" fill="#212121" width="188.9" height="1"/>
</g>
<g>
	
		<rect x="413.8" y="811.8" transform="matrix(0.3791 0.9253 -0.9253 0.3791 1066.8295 34.6614)" fill="#212121" width="187.6" height="1"/>
</g>
<g>
	<rect y="725" fill="#212121" width="472" height="1"/>
</g>
<g>
	<rect x="970" y="726" fill="#212121" width="471" height="1"/>
</g>
<g>
	
		<rect x="933.3" y="718.7" transform="matrix(0.9228 0.3852 -0.3852 0.9228 385.1599 -296.9596)" fill="#212121" width="1" height="188.4"/>
</g>
<g>
	
		<rect x="809.8" y="841.3" transform="matrix(0.3788 0.9255 -0.9255 0.3788 1369.2898 -168.6453)" fill="#212121" width="1" height="188.7"/>
</g>
<g>
	<rect x="722" y="971" fill="#212121" width="1" height="473"/>
</g>
<g>
	<rect x="417.9" y="807.9" transform="matrix(0.3798 0.9251 -0.9251 0.3798 1065.1171 28.0468)" width="187.5" height="1"/>
</g>
<g>
	<rect x="929.3" y="715.9" transform="matrix(0.9228 0.3852 -0.3852 0.9228 383.5502 -295.676)" width="1" height="187.4"/>
</g>
<g>
	<rect x="806.4" y="837.8" transform="matrix(0.3788 0.9255 -0.9255 0.3788 1363.4836 -168.0694)" width="1" height="187.6"/>
</g>
<g>
	<rect x="540" y="930.7" transform="matrix(0.9228 0.3852 -0.3852 0.9228 407.6143 -172.2518)" width="187.4" height="1"/>
</g>
<g>
	<rect y="720" width="471" height="1"/>
</g>
<g>
	<rect x="507.2" y="537.9" transform="matrix(0.9238 0.3828 -0.3828 0.9238 280.9269 -146.1609)" width="1" height="189.9"/>
</g>
<g>
	<rect x="630.3" y="415.5" transform="matrix(0.3828 0.9238 -0.9238 0.3828 859.8482 -268.4379)" width="1" height="187.6"/>
</g>
<g>
	<rect x="717" y="1" width="1" height="472"/>
</g>
<g>
	<rect x="722" y="1" fill="#212121" width="1" height="472"/>
</g>
</svg>
