<?xml version="1.0" encoding="utf-8"?>
<!-- Generator: Adobe Illustrator 18.0.0, SVG Export Plug-In . SVG Version: 6.00 Build 0)  -->
<!DOCTYPE svg PUBLIC "-//W3C//DTD SVG 1.1//EN" "http://www.w3.org/Graphics/SVG/1.1/DTD/svg11.dtd">
<svg version="1.1" id="Layer_1" xmlns="http://www.w3.org/2000/svg" xmlns:xlink="http://www.w3.org/1999/xlink" x="0px" y="0px"
	 viewBox="0 0 400 400" enable-background="new 0 0 400 400" xml:space="preserve">
<symbol  id="SM_logo" viewBox="-176.1 -103.6 352.1 207.3">
	<g>
		<path fill-rule="evenodd" clip-rule="evenodd" d="M-174.3-17.3h104l-8.5-13.2L-59.4-18L-40-30.5l-12.4,19.3L-40,8.2L-59.4-4.2
			L-78.7,8.2L-70.2-5h-104v69.8c0,10.3,4.1,20.2,11.4,27.4c7.3,7.3,17.1,11.4,27.4,11.4h123.2V51.7h-101.1l8.5,13.2l-19.3-12.4
			l-19.3,12.4l12.4-19.3l-12.4-19.3l19.3,12.4l19.3-12.4l-8.5,13.2h101.1v-63.9c0-10.3-4.1-20.2-11.4-27.4
			c-7.3-7.3-17.1-11.4-27.4-11.4h-123.2V-17.3z"/>
		<path fill-rule="evenodd" clip-rule="evenodd" d="M55.7-60.8H9.1v162c0,0,78.8,0,128.1,0c10.3,0,20.2-4.1,27.4-11.4
			c7.3-7.3,11.4-17.1,11.4-27.4V-60.8h-46.9v97.6l13.2-8.5l-12.4,19.3L142.3,67L123,54.6L103.7,67l12.4-19.3l-12.4-19.3l13.2,8.5
			v-97.6H68v97.6l13.2-8.5L68.8,47.7L81.2,67L61.8,54.6L42.5,67l12.4-19.3L42.5,28.3l13.2,8.5V-60.8z"/>
	</g>
	<g>
		<path fill-rule="evenodd" clip-rule="evenodd" d="M-142.2-73.6c0,0-13.7,0-20.3,0s-13.5-0.5-13.5-6.7c0-8,0-11,0-11h23.1v-3.6
			c0-1-0.8-1.8-1.8-1.8h-21.2v-6.2h25.8c0,0,8.1-0.3,8.1,5.2c0,5.5,0,11.7,0,11.7h-23.8v2.8c0,1,0.8,1.8,1.8,1.8h22V-73.6z"/>
		<path fill-rule="evenodd" clip-rule="evenodd" d="M-117.7-73.6c-6.6,0-21.3,0-21.3,0v-6.5v-4.6c0,0,0-6.2,0-11.7v-6.1h8.5
			c0.3,0,0.5,0,0.5,0h2v7h13v-7h10v7.1v5.4c0,0,0,2.7,0,10c0,0.3,0,0.6,0,1C-105-73-111.1-73.6-117.7-73.6z M-128-88.6v8h9.6
			c2.1,0,3.4-1,3.4-3.1v-4.9H-128z"/>
		<path fill-rule="evenodd" clip-rule="evenodd" d="M86.5-73.6c-6.6,0-21.5,0-21.5,0v-6.5v-4.6c0,0,0-6.2,0-11.7v-6.1h8.8
			c0.3,0,0.5,0,0.5,0H76v7h13v-7h10v7.1v5.4c0,0,0,2.7,0,10c0,0.3,0,0.6,0,1C99-73,93.2-73.6,86.5-73.6z M76-88.6v8h9.8
			c2.1,0,3.2-1,3.2-3.1v-4.9H76z"/>
		<path fill-rule="evenodd" clip-rule="evenodd" d="M-68-91.5v-3.2c0-4.3-2.1-7.9-6.4-7.9H-101v15.3v1.7v12H-80
			c8.8,0,12.1-2.3,12.1-5.6v-3.9c0-1.4-1.3-2.6-2.3-3.3C-68.5-87.5-68-89.4-68-91.5z M-77-95.1v3c0,1.3-0.6,2.4-1.8,2.4H-91v-7h12.8
			C-77.2-96.6-77-96-77-95.1z M-79.5-78.6H-91v-6h11.5c1.2,0,1.5,1.2,1.5,2.5v1C-78-80-78.3-78.6-79.5-78.6z"/>
		<path fill-rule="evenodd" clip-rule="evenodd" d="M-47.9-95.6c-2.2,0-4,1-4,4H-29c0,0,0,4,0,7h-24v3h24c0,1,0,1.4,0,1.7v5.3h-7.2
			c-0.3,0-0.5,0-0.5,0h-2.5h-13.1h-3.7h-7v-6.3v-5.4c0,0,0-2.7,0-10c0-0.3,0-0.6,0-1c0-6.2,7.4-6.4,14-6.4s20,0,20,0v4.8v2.5v0.6
			H-47.9z"/>
		<path fill-rule="evenodd" clip-rule="evenodd" d="M-0.2-83.2L-0.2-83.2c0-1.8-1.5-3.3-3.3-3.3h-10v6.5h10
			C-1.7-80-0.2-81.4-0.2-83.2z M10-83L10-83c0,5.4-4,9.7-9.3,9.7h-14.1h-4.8h-6.3v-30h10.8v10.8h3.1l9.4-10.8h11.7L0.9-92.5H1
			C6.2-92.5,10-88.1,10-83z"/>
		<path fill-rule="evenodd" clip-rule="evenodd" d="M47.6-73.6c-4.4,0-9.1,0-11.9,0c-1.4,0-2.3,0-2.3,0c-6.9,0-18.4,0-18.4,0v-6.5
			v-4.6c0,0,0-6.2,0-11.7v-6.1h8.3c0.3,0,0.5,0,0.5,0H25v1.3v5.4v6.9v3.2v5.2h8v-4.2c0,0,0-6.2,0-11.7v-6.1h8.7c0.3,0,0.5,0,0.5,0
			H44v1.3v5.4v6.9v3.2v5.2h2.9c2.1,0,3.1-1,3.1-3.1v-2V-89v-6.9v-5.4v-1.3h10v7.1v5.4c0,0,0,2.7,0,10c0,0.3,0,0.6,0,1
			C60-73,54.2-73.6,47.6-73.6z"/>
		<path fill-rule="evenodd" clip-rule="evenodd" d="M116.5-91.6v6.7c0,2,1.6,3.6,3.6,3.6H138v7.7h-23.5c-5.8,0-11.1-6.3-11.1-14.4
			v-0.3c0-8.1,5.3-15.3,11.1-15.3H138v8.5h-17.9C118.1-95.2,116.5-93.6,116.5-91.6z"/>
		<polygon fill-rule="evenodd" clip-rule="evenodd" points="165,-73.6 165,-83.6 152,-83.6 152,-73.6 141,-73.6 141,-103.6 
			152,-103.6 152,-91.6 165,-91.6 165,-103.6 176,-103.6 176,-73.6 		"/>
	</g>
</symbol>
<g>
	<linearGradient id="SVGID_1_" gradientUnits="userSpaceOnUse" x1="-7.309" y1="61.1231" x2="404.691" y2="337.1231">
		<stop  offset="0" style="stop-color:#261C12"/>
		<stop  offset="0.1379" style="stop-color:#6B5632"/>
		<stop  offset="0.28" style="stop-color:#776950"/>
		<stop  offset="0.2906" style="stop-color:#FFFFFF"/>
		<stop  offset="0.3399" style="stop-color:#D5CBC1"/>
		<stop  offset="0.6552" style="stop-color:#E8BA7D"/>
		<stop  offset="0.9015" style="stop-color:#281C12"/>
		<stop  offset="1" style="stop-color:#54473A"/>
	</linearGradient>
	<path fill-rule="evenodd" clip-rule="evenodd" fill="url(#SVGID_1_)" d="M345,396H55c-28.2,0-51-22.8-51-51V55C4,26.8,26.8,4,55,4
		h290c28.2,0,51,22.8,51,51v290C396,373.2,373.2,396,345,396z"/>
	<g>
		<path fill="#FFFFFF" d="M345,389.5H55c-24.5,0-44.5-20-44.5-44.5V55c0-24.5,20-44.5,44.5-44.5h290c24.5,0,44.5,20,44.5,44.5v290
			C389.5,369.5,369.5,389.5,345,389.5z M55,17.5c-20.7,0-37.5,16.8-37.5,37.5v290c0,20.7,16.8,37.5,37.5,37.5h290
			c20.7,0,37.5-16.8,37.5-37.5V55c0-20.7-16.8-37.5-37.5-37.5H55z"/>
	</g>
</g>
<use xlink:href="#SM_logo"  width="352.1" height="207.3" x="-176.1" y="-103.6" transform="matrix(1 0 0 -1 -338.0239 194.3516)" overflow="visible"/>
<use xlink:href="#SM_logo"  width="352.1" height="207.3" x="-176.1" y="-103.6" transform="matrix(0.8353 0 0 -0.8353 201.0818 192.4636)" overflow="visible"/>
</svg>
